# Blender 4.0.2
# www.blender.org
mtllib apriltag0.mtl
o Cube.001
v -5.000000 0.000000 5.000000
v -5.000000 10.000000 4.999999
v -5.000000 -0.000000 -5.000000
v -5.000000 10.000000 -5.000001
v 5.000000 0.000000 5.000000
v 5.000000 10.000000 4.999999
v 5.000000 -0.000000 -5.000000
v 5.000000 10.000000 -5.000001
vn -1.0000 -0.0000 -0.0000
vn -0.0000 -0.0000 -1.0000
vn 1.0000 -0.0000 -0.0000
vn -0.0000 -0.0000 1.0000
vn -0.0000 -1.0000 -0.0000
vn -0.0000 1.0000 -0.0000
vt 0.333333 0.750000
vt 0.666666 0.750000
vt 0.666666 1.000000
vt 0.333333 1.000000
vt 0.666667 0.500000
vt 1.000000 0.500000
vt 1.000000 0.750000
vt 0.666667 0.750000
vt 0.334201 0.249349
vt 0.667535 0.249349
vt 0.667535 0.500651
vt 0.334201 0.500651
vt -0.000000 0.500000
vt 0.333333 0.500000
vt 0.333333 0.750000
vt 0.000000 0.750000
vt 0.333333 0.000000
vt 0.666667 0.000000
vt 0.666667 0.250000
vt 0.333333 0.250000
vt 0.333333 0.500000
vt 0.666667 0.750000
vt 0.333333 0.750000
s 0
usemtl april_tag0
f 1/1/1 2/2/1 4/3/1 3/4/1
f 3/5/2 4/6/2 8/7/2 7/8/2
f 7/9/3 8/10/3 6/11/3 5/12/3
f 5/13/4 6/14/4 2/15/4 1/16/4
f 3/17/5 7/18/5 5/19/5 1/20/5
f 8/21/6 4/5/6 2/22/6 6/23/6
